<mxfile host="app.diagrams.net" modified="2023-03-16T03:20:33.339Z" agent="5.0 (Windows NT 10.0; Win64; x64) AppleWebKit/537.36 (KHTML, like Gecko) Chrome/93.0.4577.63 Safari/537.36 Edg/93.0.961.47" etag="3ZghCvDk9lfPRy9Vdyus" version="21.0.6" type="github">
  <diagram name="第 1 页" id="IQUPoxUGQp5hp6mGDjeq">
    <mxGraphModel dx="2760" dy="905" grid="1" gridSize="10" guides="1" tooltips="1" connect="1" arrows="1" fold="1" page="1" pageScale="1" pageWidth="827" pageHeight="1169" math="0" shadow="0">
      <root>
        <mxCell id="0" />
        <mxCell id="1" parent="0" />
        <mxCell id="s2qasGXDU6sx1jrhp38d-2" style="edgeStyle=orthogonalEdgeStyle;rounded=0;orthogonalLoop=1;jettySize=auto;html=1;" parent="1" source="s2qasGXDU6sx1jrhp38d-1" edge="1">
          <mxGeometry relative="1" as="geometry">
            <mxPoint x="175" y="150" as="targetPoint" />
          </mxGeometry>
        </mxCell>
        <mxCell id="s2qasGXDU6sx1jrhp38d-1" value="开始" style="rounded=1;whiteSpace=wrap;html=1;" parent="1" vertex="1">
          <mxGeometry x="150" y="90" width="50" height="30" as="geometry" />
        </mxCell>
        <mxCell id="s2qasGXDU6sx1jrhp38d-4" style="edgeStyle=orthogonalEdgeStyle;rounded=0;orthogonalLoop=1;jettySize=auto;html=1;" parent="1" source="s2qasGXDU6sx1jrhp38d-3" edge="1">
          <mxGeometry relative="1" as="geometry">
            <mxPoint x="177.5" y="210" as="targetPoint" />
          </mxGeometry>
        </mxCell>
        <mxCell id="s2qasGXDU6sx1jrhp38d-3" value="双击历史树某一节点" style="rounded=0;whiteSpace=wrap;html=1;" parent="1" vertex="1">
          <mxGeometry x="115" y="150" width="125" height="30" as="geometry" />
        </mxCell>
        <mxCell id="s2qasGXDU6sx1jrhp38d-6" style="edgeStyle=orthogonalEdgeStyle;rounded=0;orthogonalLoop=1;jettySize=auto;html=1;" parent="1" source="s2qasGXDU6sx1jrhp38d-5" edge="1">
          <mxGeometry relative="1" as="geometry">
            <mxPoint x="180" y="280" as="targetPoint" />
          </mxGeometry>
        </mxCell>
        <mxCell id="s2qasGXDU6sx1jrhp38d-5" value="由字典找到节点对于的特征" style="rounded=0;whiteSpace=wrap;html=1;" parent="1" vertex="1">
          <mxGeometry x="120" y="210" width="120" height="40" as="geometry" />
        </mxCell>
        <mxCell id="s2qasGXDU6sx1jrhp38d-8" style="edgeStyle=orthogonalEdgeStyle;rounded=0;orthogonalLoop=1;jettySize=auto;html=1;" parent="1" source="s2qasGXDU6sx1jrhp38d-7" edge="1">
          <mxGeometry relative="1" as="geometry">
            <mxPoint x="179" y="340" as="targetPoint" />
          </mxGeometry>
        </mxCell>
        <mxCell id="s2qasGXDU6sx1jrhp38d-7" value="获取创建修改特征前的拓扑实体Shape1" style="rounded=0;whiteSpace=wrap;html=1;" parent="1" vertex="1">
          <mxGeometry x="118" y="280" width="122" height="30" as="geometry" />
        </mxCell>
        <mxCell id="s2qasGXDU6sx1jrhp38d-10" value="是" style="edgeStyle=orthogonalEdgeStyle;rounded=0;orthogonalLoop=1;jettySize=auto;html=1;exitX=1;exitY=0.5;exitDx=0;exitDy=0;entryX=0;entryY=0.5;entryDx=0;entryDy=0;" parent="1" source="s2qasGXDU6sx1jrhp38d-9" target="s2qasGXDU6sx1jrhp38d-11" edge="1">
          <mxGeometry relative="1" as="geometry">
            <mxPoint x="260" y="380" as="targetPoint" />
          </mxGeometry>
        </mxCell>
        <mxCell id="s2qasGXDU6sx1jrhp38d-15" value="否" style="edgeStyle=orthogonalEdgeStyle;rounded=0;orthogonalLoop=1;jettySize=auto;html=1;" parent="1" source="s2qasGXDU6sx1jrhp38d-9" edge="1">
          <mxGeometry relative="1" as="geometry">
            <mxPoint x="179" y="500" as="targetPoint" />
          </mxGeometry>
        </mxCell>
        <mxCell id="s2qasGXDU6sx1jrhp38d-9" value="是否是&lt;br&gt;基准特征" style="rhombus;whiteSpace=wrap;html=1;" parent="1" vertex="1">
          <mxGeometry x="139" y="390" width="80" height="80" as="geometry" />
        </mxCell>
        <mxCell id="s2qasGXDU6sx1jrhp38d-11" value="将Shape1在场景中显示" style="rounded=0;whiteSpace=wrap;html=1;" parent="1" vertex="1">
          <mxGeometry x="260" y="410" width="120" height="40" as="geometry" />
        </mxCell>
        <mxCell id="s2qasGXDU6sx1jrhp38d-12" style="edgeStyle=orthogonalEdgeStyle;rounded=0;orthogonalLoop=1;jettySize=auto;html=1;exitX=0.5;exitY=1;exitDx=0;exitDy=0;" parent="1" source="s2qasGXDU6sx1jrhp38d-11" target="s2qasGXDU6sx1jrhp38d-11" edge="1">
          <mxGeometry relative="1" as="geometry" />
        </mxCell>
        <mxCell id="s2qasGXDU6sx1jrhp38d-14" style="edgeStyle=orthogonalEdgeStyle;rounded=0;orthogonalLoop=1;jettySize=auto;html=1;entryX=0.5;entryY=0;entryDx=0;entryDy=0;" parent="1" source="s2qasGXDU6sx1jrhp38d-13" target="s2qasGXDU6sx1jrhp38d-9" edge="1">
          <mxGeometry relative="1" as="geometry" />
        </mxCell>
        <mxCell id="s2qasGXDU6sx1jrhp38d-13" value="擦除当前显示的拓扑Shape2" style="rounded=0;whiteSpace=wrap;html=1;" parent="1" vertex="1">
          <mxGeometry x="113" y="340" width="132" height="30" as="geometry" />
        </mxCell>
        <mxCell id="s2qasGXDU6sx1jrhp38d-17" value="是" style="edgeStyle=orthogonalEdgeStyle;rounded=0;orthogonalLoop=1;jettySize=auto;html=1;" parent="1" source="s2qasGXDU6sx1jrhp38d-16" edge="1">
          <mxGeometry relative="1" as="geometry">
            <mxPoint x="178" y="610" as="targetPoint" />
          </mxGeometry>
        </mxCell>
        <mxCell id="s2qasGXDU6sx1jrhp38d-19" value="否" style="edgeStyle=orthogonalEdgeStyle;rounded=0;orthogonalLoop=1;jettySize=auto;html=1;entryX=0;entryY=0.5;entryDx=0;entryDy=0;" parent="1" source="s2qasGXDU6sx1jrhp38d-16" target="s2qasGXDU6sx1jrhp38d-20" edge="1">
          <mxGeometry relative="1" as="geometry">
            <mxPoint x="250" y="540" as="targetPoint" />
          </mxGeometry>
        </mxCell>
        <mxCell id="s2qasGXDU6sx1jrhp38d-16" value="是否是&lt;br&gt;基体特征" style="rhombus;whiteSpace=wrap;html=1;" parent="1" vertex="1">
          <mxGeometry x="138" y="500" width="80" height="80" as="geometry" />
        </mxCell>
        <mxCell id="s2qasGXDU6sx1jrhp38d-18" value="将修改特征存储的实体Shape3与Shape1布尔操作后显示" style="rounded=0;whiteSpace=wrap;html=1;" parent="1" vertex="1">
          <mxGeometry x="125" y="610" width="120" height="60" as="geometry" />
        </mxCell>
        <mxCell id="s2qasGXDU6sx1jrhp38d-20" value="将修改特征存储的实体显示" style="rounded=0;whiteSpace=wrap;html=1;" parent="1" vertex="1">
          <mxGeometry x="260" y="520" width="120" height="40" as="geometry" />
        </mxCell>
        <mxCell id="s2qasGXDU6sx1jrhp38d-27" value="是" style="edgeStyle=orthogonalEdgeStyle;rounded=0;orthogonalLoop=1;jettySize=auto;html=1;" parent="1" source="s2qasGXDU6sx1jrhp38d-22" edge="1">
          <mxGeometry relative="1" as="geometry">
            <mxPoint x="185" y="820" as="targetPoint" />
          </mxGeometry>
        </mxCell>
        <mxCell id="s2qasGXDU6sx1jrhp38d-29" value="否" style="edgeStyle=orthogonalEdgeStyle;rounded=0;orthogonalLoop=1;jettySize=auto;html=1;exitX=0;exitY=0.5;exitDx=0;exitDy=0;" parent="1" source="s2qasGXDU6sx1jrhp38d-22" edge="1">
          <mxGeometry relative="1" as="geometry">
            <mxPoint x="90" y="750" as="targetPoint" />
          </mxGeometry>
        </mxCell>
        <mxCell id="s2qasGXDU6sx1jrhp38d-22" value="是否符合&lt;br&gt;用户要求" style="rhombus;whiteSpace=wrap;html=1;" parent="1" vertex="1">
          <mxGeometry x="145" y="710" width="80" height="80" as="geometry" />
        </mxCell>
        <mxCell id="s2qasGXDU6sx1jrhp38d-23" value="" style="endArrow=classic;html=1;rounded=0;exitX=0.5;exitY=1;exitDx=0;exitDy=0;entryX=0.5;entryY=0;entryDx=0;entryDy=0;" parent="1" source="s2qasGXDU6sx1jrhp38d-18" target="s2qasGXDU6sx1jrhp38d-22" edge="1">
          <mxGeometry width="50" height="50" relative="1" as="geometry">
            <mxPoint x="200" y="690" as="sourcePoint" />
            <mxPoint x="340" y="730" as="targetPoint" />
          </mxGeometry>
        </mxCell>
        <mxCell id="s2qasGXDU6sx1jrhp38d-25" value="" style="endArrow=none;html=1;rounded=0;exitX=1;exitY=0.5;exitDx=0;exitDy=0;" parent="1" source="s2qasGXDU6sx1jrhp38d-20" edge="1">
          <mxGeometry width="50" height="50" relative="1" as="geometry">
            <mxPoint x="460" y="620" as="sourcePoint" />
            <mxPoint x="400" y="540" as="targetPoint" />
          </mxGeometry>
        </mxCell>
        <mxCell id="s2qasGXDU6sx1jrhp38d-30" value="通过对话框修改参数&lt;br&gt;或者对草图进行修改" style="rounded=0;whiteSpace=wrap;html=1;" parent="1" vertex="1">
          <mxGeometry x="-30" y="720" width="120" height="60" as="geometry" />
        </mxCell>
        <mxCell id="s2qasGXDU6sx1jrhp38d-32" value="" style="endArrow=none;html=1;rounded=0;exitX=1;exitY=0.5;exitDx=0;exitDy=0;edgeStyle=orthogonalEdgeStyle;entryX=0.5;entryY=0;entryDx=0;entryDy=0;" parent="1" source="s2qasGXDU6sx1jrhp38d-11" target="s2qasGXDU6sx1jrhp38d-22" edge="1">
          <mxGeometry width="50" height="50" relative="1" as="geometry">
            <mxPoint x="470" y="580" as="sourcePoint" />
            <mxPoint x="410" y="720" as="targetPoint" />
            <Array as="points">
              <mxPoint x="400" y="430" />
              <mxPoint x="400" y="710" />
            </Array>
          </mxGeometry>
        </mxCell>
        <mxCell id="s2qasGXDU6sx1jrhp38d-33" value="" style="endArrow=none;html=1;rounded=0;exitX=0.5;exitY=0;exitDx=0;exitDy=0;edgeStyle=orthogonalEdgeStyle;entryX=0.5;entryY=0;entryDx=0;entryDy=0;" parent="1" source="s2qasGXDU6sx1jrhp38d-30" target="s2qasGXDU6sx1jrhp38d-22" edge="1">
          <mxGeometry width="50" height="50" relative="1" as="geometry">
            <mxPoint x="-80" y="700" as="sourcePoint" />
            <mxPoint x="130" y="690" as="targetPoint" />
            <Array as="points">
              <mxPoint x="30" y="710" />
            </Array>
          </mxGeometry>
        </mxCell>
        <mxCell id="s2qasGXDU6sx1jrhp38d-35" value="否" style="edgeStyle=orthogonalEdgeStyle;rounded=0;orthogonalLoop=1;jettySize=auto;html=1;" parent="1" source="s2qasGXDU6sx1jrhp38d-34" edge="1">
          <mxGeometry relative="1" as="geometry">
            <mxPoint x="260" y="860" as="targetPoint" />
          </mxGeometry>
        </mxCell>
        <mxCell id="s2qasGXDU6sx1jrhp38d-37" value="是" style="edgeStyle=orthogonalEdgeStyle;rounded=0;orthogonalLoop=1;jettySize=auto;html=1;" parent="1" source="s2qasGXDU6sx1jrhp38d-34" edge="1">
          <mxGeometry relative="1" as="geometry">
            <mxPoint x="185" y="930" as="targetPoint" />
          </mxGeometry>
        </mxCell>
        <mxCell id="s2qasGXDU6sx1jrhp38d-34" value="是否确认修改" style="rhombus;whiteSpace=wrap;html=1;" parent="1" vertex="1">
          <mxGeometry x="145" y="820" width="80" height="80" as="geometry" />
        </mxCell>
        <mxCell id="s2qasGXDU6sx1jrhp38d-39" style="edgeStyle=orthogonalEdgeStyle;rounded=0;orthogonalLoop=1;jettySize=auto;html=1;exitX=1;exitY=0.5;exitDx=0;exitDy=0;" parent="1" source="s2qasGXDU6sx1jrhp38d-36" edge="1">
          <mxGeometry relative="1" as="geometry">
            <mxPoint x="410" y="860" as="targetPoint" />
          </mxGeometry>
        </mxCell>
        <mxCell id="s2qasGXDU6sx1jrhp38d-36" value="重新显示Shape2" style="rounded=0;whiteSpace=wrap;html=1;" parent="1" vertex="1">
          <mxGeometry x="260" y="830" width="120" height="60" as="geometry" />
        </mxCell>
        <mxCell id="s2qasGXDU6sx1jrhp38d-41" style="edgeStyle=orthogonalEdgeStyle;rounded=0;orthogonalLoop=1;jettySize=auto;html=1;entryX=0.5;entryY=1;entryDx=0;entryDy=0;" parent="1" source="s2qasGXDU6sx1jrhp38d-38" target="s2qasGXDU6sx1jrhp38d-40" edge="1">
          <mxGeometry relative="1" as="geometry" />
        </mxCell>
        <mxCell id="s2qasGXDU6sx1jrhp38d-38" value="模型重建" style="rounded=0;whiteSpace=wrap;html=1;" parent="1" vertex="1">
          <mxGeometry x="125" y="930" width="120" height="60" as="geometry" />
        </mxCell>
        <mxCell id="s2qasGXDU6sx1jrhp38d-40" value="结束" style="rounded=1;whiteSpace=wrap;html=1;" parent="1" vertex="1">
          <mxGeometry x="414" y="830" width="120" height="60" as="geometry" />
        </mxCell>
      </root>
    </mxGraphModel>
  </diagram>
</mxfile>
